<svg xmlns="http://www.w3.org/2000/svg" width="64" height="64" shape-rendering="geometricPrecision" text-rendering="geometricPrecision" image-rendering="optimizeQuality" fill-rule="evenodd" clip-rule="evenodd" viewBox="0 0 640 640"><path d="M320 640C143.529 640 0 496.494 0 320S143.482 0 320 0c176.471 0 320 143.482 320 320S496.494 640 320 640zm269.873-276.228c-9.354-3-84.65-25.359-170.246-11.646 35.752 98.234 50.245 178.242 53.127 194.884 61.24-41.48 105-107.127 117.12-183.238zM426.761 572.003c-4.122-24.012-19.878-107.517-58.23-207.239-.637.248-1.24.366-1.759.638-154.23 53.752-209.636 160.644-214.479 170.636 46.37 36.118 104.647 57.768 167.766 57.768 37.89 0 74.009-7.76 106.761-21.756l-.059-.047zm-309.89-68.883c6.248-10.642 81.249-134.754 222.121-180.357 3.52-1.11 7.122-2.232 10.76-3.236-6.874-15.52-14.362-31.11-22.122-46.359-136.36 40.879-268.87 39.119-280.87 39-.13 2.765-.13 5.517-.13 8.363 0 70.111 26.646 134.234 70.24 182.636v-.047zm-64.36-238.75c12.25.117 124.88.625 252.76-33.25-45.225-80.516-94.123-148.23-101.363-158.115-76.513 36.107-133.761 106.643-151.36 191.365h-.036zM256.008 54.65c7.512 10.11 57.237 77.765 102 159.994 97.242-36.366 138.357-91.773 143.247-98.765-48.249-42.874-111.757-68.882-181.242-68.882-21.992.118-43.524 2.763-63.993 7.63l-.012.023zm275.637 92.99c-5.764 7.748-51.65 66.52-152.648 107.765 6.354 12.992 12.508 26.244 18.118 39.638 1.996 4.76 4.004 9.354 5.882 14.114 90.993-11.35 181.36 6.886 190.372 8.752-.638-64.477-23.764-123.757-61.76-170.246l.035-.023z"/></svg>